<svg width="85" height="58" viewBox="0 0 85 58" fill="none" xmlns="http://www.w3.org/2000/svg">
<path d="M77 0H8C3.58172 0 0 3.58172 0 8V50C0 54.4183 3.58172 58 8 58H77C81.4183 58 85 54.4183 85 50V8C85 3.58172 81.4183 0 77 0Z" fill="#101225"/>
<path d="M66 50C68.7614 50 71 47.7614 71 45C71 42.2386 68.7614 40 66 40C63.2386 40 61 42.2386 61 45C61 47.7614 63.2386 50 66 50Z" fill="#FBB734"/>
<path d="M71 50C73.7614 50 76 47.7614 76 45C76 42.2386 73.7614 40 71 40C68.2386 40 66 42.2386 66 45C66 47.7614 68.2386 50 71 50Z" fill="#FF5E5E"/>
<path d="M10.7388 10.3643V12.7116C10.7388 13.2052 10.3979 13.5604 9.84393 13.5604C9.29173 13.5604 8.94904 13.2052 8.94904 12.7116V10.3643H8.40039V12.756C8.40039 13.5195 8.97213 14.0611 9.84393 14.0611C10.7157 14.0611 11.2893 13.5195 11.2893 12.756V10.3643H10.7388ZM12.5752 12.3814C12.5752 11.9464 12.8415 11.6978 13.2109 11.6978C13.5713 11.6978 13.7897 11.9339 13.7897 12.3299V14.0007H14.3206V12.266C14.3206 11.5913 13.9495 11.2379 13.392 11.2379C12.9818 11.2379 12.7137 11.428 12.5876 11.7174H12.5539V11.2734H12.0443V14.0007H12.5752V12.3814ZM15.0326 14.0007H15.5635V11.2734H15.0326V14.0007ZM15.3007 10.8526C15.4836 10.8526 15.6363 10.7106 15.6363 10.5366C15.6363 10.3626 15.4836 10.2188 15.3007 10.2188C15.116 10.2188 14.9651 10.3626 14.9651 10.5366C14.9651 10.7106 15.116 10.8526 15.3007 10.8526ZM17.5508 11.2734H16.9915V10.62H16.4606V11.2734H16.0611V11.6996H16.4606V13.3101C16.4588 13.8054 16.837 14.0451 17.256 14.0362C17.4247 14.0344 17.5384 14.0025 17.6005 13.9794L17.5046 13.5408C17.4691 13.5479 17.4034 13.5639 17.3182 13.5639C17.146 13.5639 16.9915 13.5071 16.9915 13.1999V11.6996H17.5508V11.2734ZM19.2842 14.0557C19.879 14.0557 20.2998 13.7628 20.4206 13.3189L19.9181 13.2283C19.8222 13.4858 19.5914 13.6172 19.2895 13.6172C18.835 13.6172 18.5296 13.3224 18.5154 12.7969H20.4543V12.6087C20.4543 11.6232 19.8648 11.2379 19.2469 11.2379C18.487 11.2379 17.9863 11.8168 17.9863 12.6549C17.9863 13.5019 18.4799 14.0557 19.2842 14.0557ZM18.5171 12.3991C18.5385 12.0121 18.819 11.6765 19.2505 11.6765C19.6624 11.6765 19.9323 11.9819 19.934 12.3991H18.5171ZM22.0643 14.054C22.5614 14.054 22.7568 13.7503 22.8526 13.5763H22.897V14.0007H23.4155V10.3643H22.8846V11.7155H22.8526C22.7568 11.5469 22.5757 11.2379 22.0678 11.2379C21.4091 11.2379 20.9244 11.7582 20.9244 12.6424C20.9244 13.5248 21.402 14.054 22.0643 14.054ZM22.1815 13.6012C21.7074 13.6012 21.4606 13.1839 21.4606 12.6371C21.4606 12.0955 21.7021 11.6889 22.1815 11.6889C22.6449 11.6889 22.8935 12.0671 22.8935 12.6371C22.8935 13.2106 22.6396 13.6012 22.1815 13.6012ZM25.5391 14.0007H26.9329C27.7781 14.0007 28.1598 13.5799 28.1598 13.0224C28.1598 12.4595 27.7656 12.1417 27.4052 12.1221V12.0866C27.739 12.0014 28.0178 11.7741 28.0178 11.3196C28.0178 10.7816 27.6449 10.3643 26.8708 10.3643H25.5391V14.0007ZM26.0877 13.5302V12.3654H26.8992C27.3395 12.3654 27.6147 12.6495 27.6147 12.9957C27.6147 13.3011 27.407 13.5302 26.8796 13.5302H26.0877ZM26.0877 11.9375V10.8313H26.837C27.272 10.8313 27.4798 11.0604 27.4798 11.3622C27.4798 11.7138 27.1921 11.9375 26.8228 11.9375H26.0877ZM29.7889 14.054C30.2861 14.054 30.4814 13.7503 30.5772 13.5763H30.6216V14.0007H31.1401V11.2734H30.6092V11.7155H30.5772C30.4814 11.5469 30.3003 11.2379 29.7924 11.2379C29.1337 11.2379 28.649 11.7582 28.649 12.6424C28.649 13.5248 29.1266 14.054 29.7889 14.054ZM29.9061 13.6012C29.432 13.6012 29.1852 13.1839 29.1852 12.6371C29.1852 12.0955 29.4267 11.6889 29.9061 11.6889C30.3695 11.6889 30.6181 12.0671 30.6181 12.6371C30.6181 13.2106 30.3642 13.6012 29.9061 13.6012ZM32.4287 12.3814C32.4287 11.9464 32.6951 11.6978 33.0644 11.6978C33.4248 11.6978 33.6432 11.9339 33.6432 12.3299V14.0007H34.1741V12.266C34.1741 11.5913 33.803 11.2379 33.2455 11.2379C32.8353 11.2379 32.5672 11.428 32.4412 11.7174H32.4074V11.2734H31.8978V14.0007H32.4287V12.3814ZM34.8861 14.0007H35.417V13.033L35.6816 12.7685L36.6084 14.0007H37.26L36.0811 12.4435L37.1855 11.2734H36.5498L35.4632 12.4275H35.417V10.3643H34.8861V14.0007Z" fill="white"/>
<path d="M74.4367 14.4556H74.8558L74.8593 14.0455C75.6281 13.9869 76.0738 13.5785 76.0756 12.9624C76.0738 12.3569 75.6175 12.0355 74.9854 11.8935L74.8806 11.8686L74.8877 10.9809C75.1239 11.0359 75.2677 11.1868 75.289 11.4105H76.0259C76.017 10.8228 75.5784 10.402 74.8948 10.3274L74.8984 9.91016H74.4793L74.4758 10.3239C73.7815 10.3914 73.2915 10.8104 73.295 11.4159C73.2933 11.9521 73.6715 12.2593 74.2858 12.4066L74.4563 12.4493L74.4474 13.3885C74.158 13.3335 73.9627 13.1559 73.9431 12.8594H73.1992C73.2169 13.5767 73.6874 13.978 74.4403 14.0437L74.4367 14.4556ZM74.8664 13.3885L74.8735 12.5593C75.1487 12.6463 75.2979 12.7582 75.2997 12.9606C75.2979 13.1755 75.1345 13.3353 74.8664 13.3885ZM74.4616 11.7603C74.2396 11.684 74.0798 11.5686 74.0834 11.3644C74.0834 11.1744 74.2183 11.027 74.4687 10.9755L74.4616 11.7603Z" fill="#FAEBEF"/>
<path d="M9.24023 47.3614H10.9856V48.0006H11.7082V47.3614H12.1717V46.7453H11.7082V45.7279H11.0069V46.7453H10.0126V46.7169L11.3389 44.3642H10.5985L9.24023 46.7559V47.3614ZM12.6271 46.9725C12.6484 47.6189 13.2113 48.0503 14.0103 48.0503C14.811 48.0503 15.4112 47.6118 15.4112 46.9654C15.4112 46.4807 15.0738 46.0084 14.3086 45.9338V45.9054L15.2851 44.9182V44.3642H12.81V44.9928H14.3405V45.0176L13.5344 45.8557V46.3902H13.9268C14.3778 46.3902 14.6104 46.6139 14.6104 46.914C14.6104 47.2247 14.3636 47.4164 14.012 47.4164C13.6818 47.4164 13.4226 47.246 13.403 46.9725H12.6271ZM17.2933 48.0503C18.103 48.0503 18.6534 47.523 18.6516 46.7879C18.6534 46.0919 18.1669 45.5912 17.5117 45.5912C17.1921 45.5912 16.9169 45.7243 16.789 45.9037H16.7677L16.8618 44.9928H18.451V44.3642H16.228L16.0557 46.2818L16.7393 46.4044C16.8512 46.2534 17.0678 46.1593 17.2826 46.1593C17.6484 46.1611 17.9112 46.4257 17.9112 46.8074C17.9112 47.1856 17.6537 47.4466 17.2933 47.4466C16.9879 47.4466 16.7411 47.2549 16.7233 46.9725H15.9776C15.9918 47.6011 16.5405 48.0503 17.2933 48.0503ZM19.1878 48.0006H21.7802V47.372H20.2532V47.3472L20.7841 46.8269C21.5316 46.1451 21.7322 45.8042 21.7322 45.3905C21.7322 44.7602 21.2173 44.3145 20.4378 44.3145C19.6743 44.3145 19.1505 44.7708 19.1523 45.4846H19.8821C19.8803 45.1366 20.1005 44.9235 20.4325 44.9235C20.7521 44.9235 20.99 45.1224 20.99 45.442C20.99 45.7314 20.8125 45.9303 20.4822 46.2481L19.1878 47.4466V48.0006Z" fill="white"/>
<path d="M19 20H10C8.89543 20 8 20.8954 8 22V29C8 30.1046 8.89543 31 10 31H19C20.1046 31 21 30.1046 21 29V22C21 20.8954 20.1046 20 19 20Z" fill="#EBF2FA"/>
</svg>
