<svg width="85" height="58" viewBox="0 0 85 58" fill="none" xmlns="http://www.w3.org/2000/svg">
<path d="M77 0H8C3.58172 0 0 3.58172 0 8V50C0 54.4183 3.58172 58 8 58H77C81.4183 58 85 54.4183 85 50V8C85 3.58172 81.4183 0 77 0Z" fill="#4C6FFF"/>
<path d="M61.8337 47.8848H59.8086L61.0753 40.1406H63.1003L61.8337 47.8848Z" fill="white"/>
<path d="M69.1745 40.3297C68.7751 40.173 68.1415 40 67.3581 40C65.3582 40 63.9499 41.0545 63.9412 42.5621C63.9246 43.6744 64.9495 44.2921 65.7161 44.663C66.4996 45.042 66.766 45.2894 66.766 45.6272C66.758 46.146 66.1328 46.3851 65.5498 46.3851C64.7412 46.3851 64.308 46.2618 63.6496 45.9732L63.383 45.8494L63.0996 47.5878C63.5745 47.8018 64.4496 47.9917 65.3582 48C67.4831 48 68.8666 46.9618 68.883 45.3553C68.891 44.4737 68.3498 43.7982 67.183 43.2462C66.4747 42.8919 66.0409 42.6529 66.0409 42.2904C66.0492 41.9608 66.4078 41.6232 67.2074 41.6232C67.8658 41.6067 68.3495 41.7632 68.716 41.9197L68.8991 42.002L69.1745 40.3297Z" fill="white"/>
<path d="M71.8657 45.1414C72.0324 44.6965 72.6742 42.9746 72.6742 42.9746C72.6658 42.9911 72.8407 42.5215 72.9407 42.2332L73.0822 42.9005C73.0822 42.9005 73.4657 44.7542 73.549 45.1414C73.2325 45.1414 72.2657 45.1414 71.8657 45.1414ZM74.3655 40.1406H72.799C72.3159 40.1406 71.9489 40.2806 71.7405 40.7832L68.7324 47.8847H70.8573C70.8573 47.8847 71.2072 46.9289 71.2824 46.7231C71.5155 46.7231 73.5826 46.7231 73.8825 46.7231C73.9407 46.995 74.1242 47.8847 74.1242 47.8847H75.9993L74.3655 40.1406Z" fill="white"/>
<path d="M58.1172 40.1406L56.1339 45.4214L55.9171 44.3504C55.5505 43.1146 54.4005 41.772 53.1172 41.1043L54.9338 47.8766H57.0754L60.2586 40.1406H58.1172Z" fill="white"/>
<path d="M54.2916 40.1406H51.0333L51 40.2971C53.5417 40.9398 55.225 42.4888 55.9166 44.3508L55.2083 40.7916C55.0917 40.297 54.7333 40.157 54.2916 40.1406Z" fill="#F3F5F8"/>
<path d="M10.7388 10.3643V12.7116C10.7388 13.2052 10.3979 13.5604 9.84393 13.5604C9.29173 13.5604 8.94904 13.2052 8.94904 12.7116V10.3643H8.40039V12.756C8.40039 13.5195 8.97213 14.0611 9.84393 14.0611C10.7157 14.0611 11.2893 13.5195 11.2893 12.756V10.3643H10.7388ZM12.5752 12.3814C12.5752 11.9464 12.8415 11.6978 13.2109 11.6978C13.5713 11.6978 13.7897 11.9339 13.7897 12.3299V14.0007H14.3206V12.266C14.3206 11.5913 13.9495 11.2379 13.392 11.2379C12.9818 11.2379 12.7137 11.428 12.5876 11.7174H12.5539V11.2734H12.0443V14.0007H12.5752V12.3814ZM15.0326 14.0007H15.5635V11.2734H15.0326V14.0007ZM15.3007 10.8526C15.4836 10.8526 15.6363 10.7106 15.6363 10.5366C15.6363 10.3626 15.4836 10.2188 15.3007 10.2188C15.116 10.2188 14.9651 10.3626 14.9651 10.5366C14.9651 10.7106 15.116 10.8526 15.3007 10.8526ZM17.5508 11.2734H16.9915V10.62H16.4606V11.2734H16.0611V11.6996H16.4606V13.3101C16.4588 13.8054 16.837 14.0451 17.256 14.0362C17.4247 14.0344 17.5384 14.0025 17.6005 13.9794L17.5046 13.5408C17.4691 13.5479 17.4034 13.5639 17.3182 13.5639C17.146 13.5639 16.9915 13.5071 16.9915 13.1999V11.6996H17.5508V11.2734ZM19.2842 14.0557C19.879 14.0557 20.2998 13.7628 20.4206 13.3189L19.9181 13.2283C19.8222 13.4858 19.5914 13.6172 19.2895 13.6172C18.835 13.6172 18.5296 13.3224 18.5154 12.7969H20.4543V12.6087C20.4543 11.6232 19.8648 11.2379 19.2469 11.2379C18.487 11.2379 17.9863 11.8168 17.9863 12.6549C17.9863 13.5019 18.4799 14.0557 19.2842 14.0557ZM18.5171 12.3991C18.5385 12.0121 18.819 11.6765 19.2505 11.6765C19.6624 11.6765 19.9323 11.9819 19.934 12.3991H18.5171ZM22.0643 14.054C22.5614 14.054 22.7568 13.7503 22.8526 13.5763H22.897V14.0007H23.4155V10.3643H22.8846V11.7155H22.8526C22.7568 11.5469 22.5757 11.2379 22.0678 11.2379C21.4091 11.2379 20.9244 11.7582 20.9244 12.6424C20.9244 13.5248 21.402 14.054 22.0643 14.054ZM22.1815 13.6012C21.7074 13.6012 21.4606 13.1839 21.4606 12.6371C21.4606 12.0955 21.7021 11.6889 22.1815 11.6889C22.6449 11.6889 22.8935 12.0671 22.8935 12.6371C22.8935 13.2106 22.6396 13.6012 22.1815 13.6012ZM25.5391 14.0007H26.9329C27.7781 14.0007 28.1598 13.5799 28.1598 13.0224C28.1598 12.4595 27.7656 12.1417 27.4052 12.1221V12.0866C27.739 12.0014 28.0178 11.7741 28.0178 11.3196C28.0178 10.7816 27.6449 10.3643 26.8708 10.3643H25.5391V14.0007ZM26.0877 13.5302V12.3654H26.8992C27.3395 12.3654 27.6147 12.6495 27.6147 12.9957C27.6147 13.3011 27.407 13.5302 26.8796 13.5302H26.0877ZM26.0877 11.9375V10.8313H26.837C27.272 10.8313 27.4798 11.0604 27.4798 11.3622C27.4798 11.7138 27.1921 11.9375 26.8228 11.9375H26.0877ZM29.7889 14.054C30.2861 14.054 30.4814 13.7503 30.5772 13.5763H30.6216V14.0007H31.1401V11.2734H30.6092V11.7155H30.5772C30.4814 11.5469 30.3003 11.2379 29.7924 11.2379C29.1337 11.2379 28.649 11.7582 28.649 12.6424C28.649 13.5248 29.1266 14.054 29.7889 14.054ZM29.9061 13.6012C29.432 13.6012 29.1852 13.1839 29.1852 12.6371C29.1852 12.0955 29.4267 11.6889 29.9061 11.6889C30.3695 11.6889 30.6181 12.0671 30.6181 12.6371C30.6181 13.2106 30.3642 13.6012 29.9061 13.6012ZM32.4287 12.3814C32.4287 11.9464 32.6951 11.6978 33.0644 11.6978C33.4248 11.6978 33.6432 11.9339 33.6432 12.3299V14.0007H34.1741V12.266C34.1741 11.5913 33.803 11.2379 33.2455 11.2379C32.8353 11.2379 32.5672 11.428 32.4412 11.7174H32.4074V11.2734H31.8978V14.0007H32.4287V12.3814ZM34.8861 14.0007H35.417V13.033L35.6816 12.7685L36.6084 14.0007H37.26L36.0811 12.4435L37.1855 11.2734H36.5498L35.4632 12.4275H35.417V10.3643H34.8861V14.0007Z" fill="white"/>
<path d="M74.4455 14.4536H74.7793L74.7811 14.0541C75.5322 13.9991 75.9618 13.5694 75.9618 12.9941C75.9618 12.3389 75.3777 12.085 74.916 11.9714L74.7864 11.9377L74.79 10.7978C75.122 10.8421 75.3493 11.0268 75.383 11.318H75.9121C75.8979 10.7764 75.4505 10.3716 74.7917 10.3183L74.7935 9.9082H74.4597L74.4579 10.3219C73.8205 10.3858 73.3535 10.7835 73.3535 11.3571C73.3535 11.8631 73.7158 12.1596 74.2999 12.3176L74.4526 12.3585L74.4491 13.5676C74.1028 13.525 73.8347 13.3368 73.8063 12.9941H73.2559C73.2896 13.6067 73.7317 14.0009 74.4473 14.0541L74.4455 14.4536ZM74.7829 13.5676L74.7864 12.4508C75.1469 12.5502 75.4185 12.6816 75.4185 12.9888C75.4185 13.2995 75.1593 13.5179 74.7829 13.5676ZM74.4544 11.8489C74.1898 11.7708 73.8986 11.6305 73.9004 11.3251C73.9004 11.0588 74.1117 10.851 74.4562 10.7995L74.4544 11.8489Z" fill="white"/>
<path d="M9.24023 47.3614H10.9856V48.0006H11.7082V47.3614H12.1717V46.7453H11.7082V45.7279H11.0069V46.7453H10.0126V46.7169L11.3389 44.3642H10.5985L9.24023 46.7559V47.3614ZM12.6271 46.9725C12.6484 47.6189 13.2113 48.0503 14.0103 48.0503C14.811 48.0503 15.4112 47.6118 15.4112 46.9654C15.4112 46.4807 15.0738 46.0084 14.3086 45.9338V45.9054L15.2851 44.9182V44.3642H12.81V44.9928H14.3405V45.0176L13.5344 45.8557V46.3902H13.9268C14.3778 46.3902 14.6104 46.6139 14.6104 46.914C14.6104 47.2247 14.3636 47.4164 14.012 47.4164C13.6818 47.4164 13.4226 47.246 13.403 46.9725H12.6271ZM17.2933 48.0503C18.103 48.0503 18.6534 47.523 18.6516 46.7879C18.6534 46.0919 18.1669 45.5912 17.5117 45.5912C17.1921 45.5912 16.9169 45.7243 16.789 45.9037H16.7677L16.8618 44.9928H18.451V44.3642H16.228L16.0557 46.2818L16.7393 46.4044C16.8512 46.2534 17.0678 46.1593 17.2826 46.1593C17.6484 46.1611 17.9112 46.4257 17.9112 46.8074C17.9112 47.1856 17.6537 47.4466 17.2933 47.4466C16.9879 47.4466 16.7411 47.2549 16.7233 46.9725H15.9776C15.9918 47.6011 16.5405 48.0503 17.2933 48.0503ZM19.1878 48.0006H21.7802V47.372H20.2532V47.3472L20.7841 46.8269C21.5316 46.1451 21.7322 45.8042 21.7322 45.3905C21.7322 44.7602 21.2173 44.3145 20.4378 44.3145C19.6743 44.3145 19.1505 44.7708 19.1523 45.4846H19.8821C19.8803 45.1366 20.1005 44.9235 20.4325 44.9235C20.7521 44.9235 20.99 45.1224 20.99 45.442C20.99 45.7314 20.8125 45.9303 20.4822 46.2481L19.1878 47.4466V48.0006Z" fill="white"/>
<path d="M19 20H10C8.89543 20 8 20.8954 8 22V29C8 30.1046 8.89543 31 10 31H19C20.1046 31 21 30.1046 21 29V22C21 20.8954 20.1046 20 19 20Z" fill="#FAEBEF"/>
</svg>
